<?xml version="1.0" standalone="no"?>
<!DOCTYPE svg PUBLIC "-//W3C//DTD SVG 20010904//EN"
 "http://www.w3.org/TR/2001/REC-SVG-20010904/DTD/svg10.dtd">
<svg version="1.0" xmlns="http://www.w3.org/2000/svg"
 width="1000.000000pt" height="1000.000000pt" viewBox="0 0 1000.000000 1000.000000"
 preserveAspectRatio="xMidYMid meet">
<metadata>
Created by potrace 1.14, written by Peter Selinger 2001-2017
</metadata>
<g transform="translate(0.000000,1000.000000) scale(0.100000,-0.100000)"
fill="#000000" stroke="none">
<path d="M4437 9864 c-1 -1 -33 -5 -72 -9 -38 -3 -72 -8 -75 -10 -3 -1 -27 -6
-55 -9 -198 -27 -485 -141 -683 -273 -225 -149 -363 -297 -602 -643 -8 -12
-29 -41 -46 -64 -17 -22 -91 -126 -165 -230 -74 -103 -189 -265 -256 -360 -67
-94 -128 -179 -135 -189 -7 -11 -51 -72 -98 -137 -47 -65 -91 -127 -98 -137
-7 -10 -53 -74 -102 -143 -49 -69 -94 -132 -100 -140 -6 -8 -62 -87 -126 -175
-63 -88 -130 -182 -150 -210 -59 -85 -119 -170 -414 -581 -157 -219 -293 -410
-302 -424 -9 -14 -79 -111 -155 -217 -76 -106 -145 -202 -153 -214 -8 -11 -32
-44 -52 -72 -261 -364 -328 -461 -328 -477 0 -10 4 -20 8 -22 5 -1 27 -30 50
-63 22 -33 118 -166 211 -295 94 -129 176 -243 183 -253 7 -11 38 -53 69 -95
31 -43 121 -167 199 -277 79 -110 165 -229 191 -265 26 -36 81 -112 123 -170
136 -190 181 -252 211 -294 17 -22 134 -185 261 -361 127 -176 360 -500 519
-720 159 -220 309 -429 334 -465 25 -36 50 -70 55 -77 6 -6 21 -27 34 -45 13
-18 96 -134 185 -258 90 -124 227 -315 306 -425 79 -110 172 -238 206 -285 34
-47 123 -170 198 -275 75 -104 139 -194 144 -200 4 -5 35 -47 67 -92 33 -46
61 -83 63 -83 3 0 104 33 226 74 122 40 533 176 912 301 380 125 776 256 880
290 105 35 541 179 970 320 429 142 906 299 1060 350 154 51 623 206 1042 344
l762 252 0 3109 0 3109 -252 82 c-139 46 -256 84 -262 85 -5 1 -91 29 -190 62
-99 33 -335 110 -525 172 -190 61 -383 124 -430 140 -95 32 -878 287 -1185
387 -110 36 -231 75 -270 88 -38 13 -272 90 -520 170 -247 81 -565 185 -705
230 -350 115 -435 137 -625 161 -48 6 -333 13 -338 8z m333 -919 c19 -4 53
-13 75 -20 22 -7 195 -63 385 -125 190 -61 370 -120 400 -130 30 -10 210 -69
400 -130 190 -61 370 -120 400 -130 30 -10 204 -67 385 -125 535 -173 755
-245 845 -275 47 -15 148 -48 225 -73 77 -25 309 -100 515 -167 206 -67 396
-129 423 -137 l47 -15 0 -1733 0 -1732 -72 -25 c-120 -42 -472 -159 -488 -163
-8 -1 -188 -60 -400 -130 -212 -70 -484 -160 -605 -200 -298 -98 -1381 -455
-1745 -575 -799 -264 -1745 -575 -2032 -669 l-116 -38 -509 706 c-279 388
-536 744 -570 791 -34 47 -75 103 -91 125 -16 22 -110 153 -209 290 -296 413
-625 869 -634 880 -6 9 237 356 465 665 18 25 111 153 206 285 95 132 189 263
210 290 20 28 243 336 495 685 253 349 524 725 604 835 79 110 190 263 245
340 55 77 105 145 111 152 5 7 33 44 60 84 135 193 219 279 343 352 92 54 227
103 332 120 36 5 259 0 300 -8z m4075 -5707 l0 -513 -200 -67 c-261 -87 -947
-311 -960 -314 -5 -1 -149 -48 -320 -104 -170 -56 -434 -142 -585 -192 -151
-49 -300 -98 -330 -108 -30 -10 -237 -78 -460 -150 -223 -72 -443 -144 -490
-160 -47 -15 -274 -90 -505 -165 -231 -75 -496 -162 -588 -192 -92 -30 -174
-52 -182 -49 -8 3 -24 21 -37 40 -13 19 -62 88 -110 153 -48 65 -150 204 -227
308 -77 105 -144 195 -148 200 -17 19 -73 104 -73 109 0 2 15 9 33 15 50 15
1081 353 1377 451 146 48 535 176 865 285 330 108 607 199 615 202 8 4 17 7
20 8 9 2 315 103 1040 342 393 129 823 271 955 314 132 43 251 82 265 88 14 5
30 9 35 10 7 1 10 -174 10 -511z"/>
</g>
</svg>
